<svg xmlns="http://www.w3.org/2000/svg" xmlns:xlink="http://www.w3.org/1999/xlink" width="53.51" height="39.324" viewBox="0 0 53.51 39.324">
  <defs>
    <clipPath id="clip-path">
      <path id="Intersection_1" data-name="Intersection 1" d="M0,38.195V.348A.365.365,0,0,1,.241,0L19.759,5.39a.352.352,0,0,1,.457.348V31.517a.364.364,0,0,1-.241.348L.457,38.543a.334.334,0,0,1-.109.018A.358.358,0,0,1,0,38.195Zm.362,0,19.49-6.668,0-25.785a.363.363,0,0,1-.191,0L.358.408Z" transform="translate(0 0)" fill="none"/>
    </clipPath>
  </defs>
  <g id="box" transform="translate(0 0)">
    <g id="Group_977" data-name="Group 977" transform="translate(0 0.387)">
      <path id="Path_573" data-name="Path 573" d="M71.238,477.862l-4.557,7.63H91.459V472.566Z" transform="translate(-66.319 -472.204)" fill="#c69c6d"/>
      <path id="Path_574" data-name="Path 574" d="M90.321,484.717H65.543a.362.362,0,0,1-.311-.548l4.558-7.63a.36.36,0,0,1,.219-.165l20.221-5.3a.362.362,0,0,1,.454.35v12.926A.362.362,0,0,1,90.321,484.717Zm-24.14-.724H89.959V471.9l-19.624,5.14Z" transform="translate(-65.181 -471.066)" fill="#565658"/>
    </g>
    <g id="Group_982" data-name="Group 982" transform="translate(4.557 0)">
      <g id="Group_981" data-name="Group 981" transform="translate(0)">
        <path id="Path_577" data-name="Path 577" d="M105.535,509.521,85.759,502.8a.3.3,0,0,1-.2-.283V476.592c0-.2.175-.246.371-.283l19.776-5.345a.3.3,0,0,1,.2.283v37.991A.286.286,0,0,1,105.535,509.521Z" transform="translate(-85.201 -470.602)" fill="#e2b181"/>
        <path id="Path_578" data-name="Path 578" d="M104.486,508.76a.643.643,0,0,1-.206-.034L84.5,502a.658.658,0,0,1-.441-.626V475.454c0-.5.475-.6.652-.636l19.763-5.342a.362.362,0,0,1,.211.007.658.658,0,0,1,.441.626V508.1a.664.664,0,0,1-.275.54A.63.63,0,0,1,104.486,508.76Zm.028-.72h0Zm-19.727-6.706L104.406,508V470.245L84.89,475.52l-.027.006-.076.016Z" transform="translate(-84.063 -469.463)" fill="#565658"/>
      </g>
    </g>
    <g id="Group_984" data-name="Group 984" transform="translate(4.557 14.483)">
      <g id="Group_983" data-name="Group 983" transform="translate(0 0)">
        <path id="Path_579" data-name="Path 579" d="M105.535,540.573,85.759,538.9c-.117-.01-.2-.038-.2-.071v-6.456c0-.05.188-.086.371-.071l19.776-1.331c.117.01.2.038.2.071V540.5C105.906,540.553,105.718,540.588,105.535,540.573Z" transform="translate(-85.201 -530.608)" fill="#fff"/>
        <path id="Path_580" data-name="Path 580" d="M104.491,539.8c-.049,0-.092,0-.124-.005l-19.776-1.674c-.476-.04-.528-.315-.528-.431v-6.456a.419.419,0,0,1,.128-.287.876.876,0,0,1,.606-.146l19.751-1.329a.373.373,0,0,1,.055,0c.476.04.527.315.527.431v9.462a.419.419,0,0,1-.128.287A.78.78,0,0,1,104.491,539.8Zm-19.7-2.389,19.618,1.661v-8.866L84.82,531.524h-.033Z" transform="translate(-84.063 -529.47)" fill="#565658"/>
      </g>
    </g>
    <g id="Group_988" data-name="Group 988" transform="translate(24.909 0.039)">
      <path id="Path_581" data-name="Path 581" d="M189.863,502.99l-19.519,6.677a.352.352,0,0,1-.457-.348V471.473a.365.365,0,0,1,.241-.348l19.519,5.39a.352.352,0,0,1,.457.348v25.779A.365.365,0,0,1,189.863,502.99Z" transform="translate(-169.526 -470.763)" fill="#efc092"/>
      <path id="Path_582" data-name="Path 582" d="M169.1,508.91a.7.7,0,0,1-.405-.131.734.734,0,0,1-.3-.6V470.334a.726.726,0,0,1,.485-.69.359.359,0,0,1,.214-.006L188.518,475a.693.693,0,0,1,.506.124.734.734,0,0,1,.3.6V501.5a.725.725,0,0,1-.485.69h0l-19.519,6.677A.708.708,0,0,1,169.1,508.91Zm.011-38.515,0,37.784,19.49-6.667,0-25.785a.361.361,0,0,1-.191,0Zm19.618,31.457h0Z" transform="translate(-168.388 -469.624)" fill="#565658"/>
      <g id="Group_987" data-name="Group 987" transform="translate(0.362 0.362)" clip-path="url(#clip-path)">
        <g id="Group_986" data-name="Group 986" transform="translate(-0.056 4.683)">
          <g id="Group_985" data-name="Group 985">
            <path id="Path_583" data-name="Path 583" d="M189.761,492.03l1.61.19v26.549l-20.217,6.915" transform="translate(-170.792 -491.668)" fill="#efc092"/>
            <path id="Path_584" data-name="Path 584" d="M170.016,524.908a.362.362,0,0,1-.117-.7l19.972-6.831V491.4l-1.29-.152a.362.362,0,0,1,.085-.719l1.61.19a.362.362,0,0,1,.32.36V517.63a.362.362,0,0,1-.245.343l-20.217,6.915A.361.361,0,0,1,170.016,524.908Z" transform="translate(-169.654 -490.53)" fill="#565658"/>
          </g>
        </g>
      </g>
    </g>
    <g id="Group_995" data-name="Group 995" transform="translate(19.274 16.472)">
      <g id="Group_989" data-name="Group 989" transform="translate(0 1.923)">
        <path id="Path_587" data-name="Path 587" d="M146.12,547.209a4.826,4.826,0,0,1-.8-1.526h0a4.459,4.459,0,0,0-.279,1.328,3,3,0,0,0,1.362,2.425c.1.063.327.2.485.28h0l-.046-.025a2.908,2.908,0,0,0,.514-1.547A2.58,2.58,0,0,1,146.12,547.209Z" transform="translate(-145.04 -545.682)" fill="#8dc63f"/>
      </g>
      <g id="Group_990" data-name="Group 990" transform="translate(0.545 0)">
        <path id="Path_588" data-name="Path 588" d="M149.295,541.434a.432.432,0,0,1-.368-.384.288.288,0,0,1,.326-.3,8.278,8.278,0,0,0-1.212-3.034,10.937,10.937,0,0,0-.744,1.3v0a4.3,4.3,0,0,0,.843,1.925,1.947,1.947,0,0,0,1.082.783c.033,0,.064.007.1.008,0-.1,0-.193,0-.29Z" transform="translate(-147.297 -537.714)" fill="#8dc63f"/>
      </g>
      <g id="Group_991" data-name="Group 991" transform="translate(3.914 2.355)">
        <path id="Path_589" data-name="Path 589" d="M161.258,547.472" transform="translate(-161.258 -547.472)" fill="#00afdb"/>
      </g>
      <g id="Group_992" data-name="Group 992" transform="translate(2.234 2.953)">
        <path id="Path_590" data-name="Path 590" d="M156.313,549.949a2.3,2.3,0,0,1-.522,1,1.415,1.415,0,0,1-1,.481,3.2,3.2,0,0,1-.5,1.646,2.016,2.016,0,0,0,2.258-2.062,2.171,2.171,0,0,0-.242-1.061" transform="translate(-154.297 -549.949)" fill="#00afdb"/>
      </g>
      <g id="Group_993" data-name="Group 993" transform="translate(1.289 0)">
        <path id="Path_591" data-name="Path 591" d="M150.38,537.714h0Z" transform="translate(-150.38 -537.714)" fill="#8dc63f"/>
      </g>
      <g id="Group_994" data-name="Group 994" transform="translate(1.289)">
        <path id="Path_592" data-name="Path 592" d="M150.38,537.713h0a8.276,8.276,0,0,1,1.212,3.034h.008a.428.428,0,0,1,.381.386.286.286,0,0,1-.324.3c0,.1,0,.194,0,.29a1.079,1.079,0,0,0,.84-.372,2.094,2.094,0,0,0,.507-1.285A8.44,8.44,0,0,0,150.38,537.713Z" transform="translate(-150.38 -537.713)" fill="#00afdb"/>
      </g>
    </g>
    <g id="Group_996" data-name="Group 996" transform="translate(25.092 0.387)">
      <path id="Path_593" data-name="Path 593" d="M170.645,472.566l12.873,12.873h14.82l-7.865-7.865-19.77-5.008Z" transform="translate(-170.283 -472.204)" fill="#efc092"/>
      <path id="Path_594" data-name="Path 594" d="M197.2,484.664H182.38a.361.361,0,0,1-.256-.106l-12.874-12.873a.362.362,0,0,1,.256-.618h.059a.369.369,0,0,1,.089.011l19.77,5.009a.363.363,0,0,1,.167.1l7.865,7.865a.362.362,0,0,1-.256.618Zm-14.671-.724h13.8l-7.176-7.177-18.478-4.681Z" transform="translate(-169.145 -471.066)" fill="#565658"/>
    </g>
    <g id="Group_998" data-name="Group 998" transform="translate(24.846 14.483)">
      <g id="Group_997" data-name="Group 997" transform="translate(0 0)">
        <path id="Path_595" data-name="Path 595" d="M170,540.573l19.776-1.674c.117-.01.2-.038.2-.071v-6.456c0-.05-.187-.086-.37-.071l-19.776-1.331c-.117.01-.2.038-.2.071V540.5C169.626,540.553,169.814,540.588,170,540.573Z" transform="translate(-169.264 -530.607)" fill="#fff"/>
        <path id="Path_596" data-name="Path 596" d="M168.765,539.8a.78.78,0,0,1-.511-.149.42.42,0,0,1-.128-.287V529.9c0-.116.051-.391.527-.431a.323.323,0,0,1,.055,0l19.751,1.33a.874.874,0,0,1,.606.146.42.42,0,0,1,.128.287v6.457c0,.116-.051.391-.528.431L168.889,539.8C168.857,539.8,168.814,539.8,168.765,539.8Zm.085-9.595v8.866l19.618-1.661v-5.886h-.033Z" transform="translate(-168.126 -529.469)" fill="#565658"/>
      </g>
    </g>
  </g>
</svg>
