<svg xmlns="http://www.w3.org/2000/svg" viewBox="0 0 137.214 20">
  <g id="Group_1470" data-name="Group 1470" transform="translate(-36.036 -299.972)">
    <g id="Group_1494" data-name="Group 1494" transform="translate(36.036 301.879)">
      <path id="Path_633" data-name="Path 633" d="M96.147,319.479v6.976a2.55,2.55,0,0,1-5.1,0v-6.976H86v7.071a6.43,6.43,0,0,0,12.859,0v-7.071Z" transform="translate(-69.352 -314.887)" fill="#009259"/>
      <path id="Path_634" data-name="Path 634" d="M212.787,319.479v6.976a2.55,2.55,0,0,1-5.1,0v-6.976h-5.048v7.071a6.43,6.43,0,1,0,12.859,0v-7.071Z" transform="translate(-147.131 -314.887)" fill="#009259"/>
      <path id="Path_635" data-name="Path 635" d="M138.918,318.6a3.686,3.686,0,0,0-3.425,2.561v-2.244h-5.048V331.85h5.048v-8.112c1.779-1.692,4.689-.695,5.012,1.173a3.333,3.333,0,0,0-1.587-6.314" transform="translate(-98.99 -314.299)" fill="#009259"/>
      <path id="Path_636" data-name="Path 636" d="M255.414,318.6a3.687,3.687,0,0,0-3.426,2.561v-2.244H246.94V331.85h5.048v-8.112c1.779-1.692,4.689-.695,5.012,1.173a3.333,3.333,0,0,0-1.586-6.314" transform="translate(-176.673 -314.299)" fill="#009259"/>
      <path id="Path_637" data-name="Path 637" d="M296.42,325.834c.009-.143.015-.285.015-.43a6.877,6.877,0,1,0-6.877,6.877,6.4,6.4,0,0,0,5.024-2.182c1.962-2.427-.275-3.818-1.549-2.688.325.741-.543,2.179-2.367,2.179a3.066,3.066,0,0,1-3.066-3.066v-.69Zm-5.9-4.539a2.873,2.873,0,0,1,2.689,1.863h-5.377a2.873,2.873,0,0,1,2.688-1.863" transform="translate(-200.505 -314.252)" fill="#009259"/>
      <path id="Path_638" data-name="Path 638" d="M177.723,313v-2.711h-2.275V305.7H170.4v4.592h-2.275V313H170.4l0,7.194a3.351,3.351,0,0,0,3.242,3.528,3.161,3.161,0,0,0,3.242-2.052c-.848.181-1.437-.533-1.437-1.418l0-7.251Z" transform="translate(-124.117 -305.697)" fill="#009259"/>
      <path id="Path_639" data-name="Path 639" d="M50.83,328.342l0-4.057a6.429,6.429,0,0,0-11.183-4.33,2.453,2.453,0,0,0-1.793-.607,1.859,1.859,0,0,0-1.823,1.575c1.94.3,1.94,2.764,1.94,4.641v5.793h5.048V324.38a2.55,2.55,0,0,1,5.1,0V329.5a2.311,2.311,0,0,0,2.356,2.275,1.563,1.563,0,0,0,1.532-1.323c-1.267,0-1.206-.794-1.183-2.113" transform="translate(-36.036 -313.804)" fill="#009259"/>
    </g>
    <g id="Group_1495" data-name="Group 1495" transform="translate(134.302 299.972)">
      <path id="Path_640" data-name="Path 640" d="M420.334,326.022c.009-.143.015-.286.015-.43a6.877,6.877,0,1,0-6.877,6.878,6.4,6.4,0,0,0,5.023-2.182c1.962-2.427-.275-3.818-1.549-2.687.325.741-.543,2.178-2.367,2.178a3.066,3.066,0,0,1-3.066-3.066v-.69Zm-5.9-4.539a2.873,2.873,0,0,1,2.688,1.863H411.75a2.873,2.873,0,0,1,2.689-1.863" transform="translate(-381.4 -312.47)" fill="#f2dd1c"/>
      <path id="Path_641" data-name="Path 641" d="M336.023,302.946h-5.048l0,15.475a3.351,3.351,0,0,0,3.242,3.528,3.16,3.16,0,0,0,3.242-2.052c-.848.182-1.437-.533-1.437-1.418Z" transform="translate(-330.975 -301.955)" fill="#f2dd1c"/>
      <path id="Path_642" data-name="Path 642" d="M360.2,319.667h-5.048l0,9.9A3.351,3.351,0,0,0,358.4,333.1a3.16,3.16,0,0,0,3.242-2.052c-.848.182-1.437-.533-1.437-1.418Z" transform="translate(-347.098 -313.105)" fill="#f2dd1c"/>
      <path id="Path_643" data-name="Path 643" d="M383.52,306.534v-.92c0-1.781,2.174-1.566,2.161-.4a3.319,3.319,0,0,0-2.895-5.238,4.316,4.316,0,0,0-4.314,4.606v1.956H376.2v2.711h2.275v10.186h5.048V309.245h2.275v-2.711Z" transform="translate(-361.13 -299.972)" fill="#f2dd1c"/>
      <path id="Path_644" data-name="Path 644" d="M360.536,304.356a2.462,2.462,0,1,1-2.461-2.416,2.439,2.439,0,0,1,2.461,2.416" transform="translate(-347.405 -301.284)" fill="#f2dd1c"/>
    </g>
  </g>
</svg>
