<svg xmlns="http://www.w3.org/2000/svg" width="229.039" height="146.224" viewBox="0 0 229.039 146.224">
  <g id="Group_1934" data-name="Group 1934" transform="translate(-22 -3321.249)">
    <g id="Group_1863" data-name="Group 1863" transform="translate(0 1618)">
      <g id="Group_1860" data-name="Group 1860">
        <path id="Path_645" data-name="Path 645" d="M259.032,391.7v16.607a6.072,6.072,0,0,1-6.071,6.072h0a6.072,6.072,0,0,1-6.072-6.072V391.7H234.87v16.834a15.307,15.307,0,0,0,15.308,15.308h0a15.308,15.308,0,0,0,15.308-15.308V391.7Z" transform="translate(-173.239 1322.482)" fill="#23ae00"/>
        <path id="Path_646" data-name="Path 646" d="M373.111,391.7v16.607a6.072,6.072,0,0,1-6.071,6.072h0a6.072,6.072,0,0,1-6.072-6.072V391.7H348.949v16.834a15.307,15.307,0,0,0,15.307,15.308h0a15.308,15.308,0,0,0,15.308-15.308V391.7Z" transform="translate(-194.795 1322.482)" fill="#23ae00"/>
        <path id="Path_647" data-name="Path 647" d="M298.515,390.836c-3.662.007-6.746,2.358-8.156,6.1v-5.344H278.34v30.8h12.019V403.075c4.235-4.027,11.164-1.655,11.932,2.792C310.315,400.947,306.346,390.821,298.515,390.836Z" transform="translate(-181.453 1322.645)" fill="#23ae00"/>
        <path id="Path_648" data-name="Path 648" d="M412.453,390.836c-3.662.007-6.745,2.358-8.156,6.1v-5.344H392.278v30.8H404.3V403.075c4.236-4.027,11.165-1.655,11.933,2.792C424.254,400.947,420.285,390.821,412.453,390.836Z" transform="translate(-202.983 1322.645)" fill="#23ae00"/>
        <path id="Path_649" data-name="Path 649" d="M459.946,408.166c.021-.339.035-.68.035-1.025a16.374,16.374,0,1,0-16.374,16.374,15.236,15.236,0,0,0,11.96-5.195c4.672-5.778-.655-9.09-3.688-6.4.774,1.763-1.293,5.187-5.636,5.187a7.3,7.3,0,0,1-7.3-7.3v-1.642Zm-14.037-10.808a6.84,6.84,0,0,1,6.4,4.437h-12.8A6.842,6.842,0,0,1,445.909,397.358Z" transform="translate(-209.588 1322.658)" fill="#23ae00"/>
        <path id="Path_650" data-name="Path 650" d="M338.045,395.6v-6.453h-5.416V378.219H320.61v10.933h-5.416V395.6h5.416l0,17.127c0,3.678,2.185,8.1,7.719,8.4,4.432.239,7.361-2.982,7.719-4.886-2.018.431-3.42-1.269-3.42-3.376l0-17.265Z" transform="translate(-188.417 1325.03)" fill="#23ae00"/>
        <path id="Path_651" data-name="Path 651" d="M221.228,415.078l.011-9.659a15.308,15.308,0,0,0-15.308-15.308h0a15.269,15.269,0,0,0-11.316,5,5.834,5.834,0,0,0-4.268-1.446c-2.3.146-4.342,1.9-4.342,3.749,4.618.711,4.618,6.581,4.618,11.049v13.791h12.019V405.646a6.072,6.072,0,0,1,12.144,0v12.2c0,2.371,2.1,5.638,5.611,5.414,1.933-.122,3.647-1.592,3.647-3.149C221.027,420.106,221.172,418.217,221.228,415.078Z" transform="translate(-164.005 1322.782)" fill="#23ae00"/>
      </g>
      <g id="Group_1861" data-name="Group 1861">
        <path id="Path_652" data-name="Path 652" d="M298.371,473.739c.021-.34.035-.681.035-1.025a16.374,16.374,0,1,0-16.374,16.373,15.236,15.236,0,0,0,11.96-5.195c4.671-5.778-.655-9.09-3.688-6.4.774,1.763-1.293,5.187-5.636,5.187a7.3,7.3,0,0,1-7.3-7.3v-1.642Zm-14.037-10.809a6.842,6.842,0,0,1,6.4,4.437h-12.8A6.842,6.842,0,0,1,284.334,462.931Z" transform="translate(-179.056 1310.268)" fill="#8ac560"/>
        <path id="Path_653" data-name="Path 653" d="M203.718,440.917H191.7l0,36.844c0,3.678,2.185,8.1,7.719,8.4,4.432.239,7.361-2.982,7.72-4.886-2.019.432-3.421-1.269-3.421-3.376Z" transform="translate(-165.081 1313.182)" fill="#8ac560"/>
        <path id="Path_654" data-name="Path 654" d="M227.366,457.271H215.347l0,23.58c0,3.678,2.184,8.1,7.719,8.4,4.432.239,7.361-2.982,7.719-4.886-2.019.431-3.42-1.269-3.42-3.376Z" transform="translate(-169.549 1310.092)" fill="#8ac560"/>
        <path id="Path_655" data-name="Path 655" d="M253.363,453.631V451.44c0-4.242,5.177-3.728,5.144-.961,3.593-4.35.7-12.471-6.892-12.471-3.661,0-10.271,2.5-10.271,10.966v4.657h-5.416v6.453h5.416v24.252h12.019V460.084h5.415v-6.453Z" transform="translate(-173.438 1313.732)" fill="#8ac560"/>
        <ellipse id="Ellipse_18" data-name="Ellipse 18" cx="5.86" cy="5.752" rx="5.86" ry="5.752" transform="translate(46.162 1753.301)" fill="#8ac560"/>
      </g>
    </g>
    <g id="Group_1862" data-name="Group 1862" transform="translate(0.646 1623)">
      <path id="Path_657" data-name="Path 657" d="M5.251,0c3.916,0,7.876,2.58,7.876,7.43,0,4.894-4.048,7.43-7.787,7.43A8.325,8.325,0,0,1,.825,13.725L1.091,10.7a6.629,6.629,0,0,0,3.892,1.179A4.463,4.463,0,0,0,9.7,7.341a4.341,4.341,0,0,0-4.6-4.4,3.722,3.722,0,0,0-1.936.422v2H5.742V8.008H0V1.468A8.3,8.3,0,0,1,5.251,0Z" transform="translate(37.48 1839.49) rotate(180)" fill="#1baf00"/>
      <path id="Path_658" data-name="Path 658" d="M.268,7.431A3.156,3.156,0,0,0,3.606,3.982V0H6.852V10.078h-3L3.76,8.5C3.137,9.766,1.893,10.255.246,10.255L0,7.431Z" transform="translate(46.574 1839.156) rotate(180)" fill="#1baf00"/>
      <path id="Path_659" data-name="Path 659" d="M5.472,0a5.3,5.3,0,0,1,5.5,5.339,5.3,5.3,0,0,1-5.5,5.361A5.293,5.293,0,0,1,0,5.339,5.288,5.288,0,0,1,5.472,0Zm0,7.942a2.447,2.447,0,0,0,2.335-2.6A2.42,2.42,0,0,0,5.472,2.781,2.434,2.434,0,0,0,3.137,5.339,2.461,2.461,0,0,0,5.472,7.942Z" transform="translate(58.583 1839.468) rotate(180)" fill="#1baf00"/>
      <path id="Path_660" data-name="Path 660" d="M3.514,0H5.738L7.073,3.982a19.231,19.231,0,0,1,.6,2.047h.043A19.911,19.911,0,0,1,8.3,4L9.632,0h2.247l3.514,10.166h-2.98l-1.246-3.8a15.389,15.389,0,0,1-.489-1.89h-.045c-.156.623-.334,1.335-.512,1.89l-1.246,3.8H6.407L5.138,6.384c-.2-.623-.356-1.29-.489-1.913H4.6a15.661,15.661,0,0,1-.512,1.913L2.847,10.166H0Z" transform="translate(75.085 1839.245) rotate(180)" fill="#1baf00"/>
      <path id="Path_661" data-name="Path 661" d="M1.692,11.723a2.553,2.553,0,0,1,1.668,1.668,2.585,2.585,0,0,1-1.668,1.692A2.57,2.57,0,0,1,0,13.392,2.539,2.539,0,0,1,1.692,11.723ZM3.315,0V10.078H.023V0Z" transform="translate(80.131 1839.156) rotate(180)" fill="#1baf00"/>
      <path id="Path_662" data-name="Path 662" d="M3.27,0V6.007a1.394,1.394,0,0,0,1.535,1.4A1.5,1.5,0,0,0,6.45,5.962V0H9.72V10.078H6.851l-.088-1a3.565,3.565,0,0,1-3.026,1.268A3.474,3.474,0,0,1,0,6.719V0Z" transform="translate(92.097 1839.156) rotate(180)" fill="#1baf00"/>
      <path id="Path_663" data-name="Path 663" d="M4.827,0C7.764,0,9.721,1.69,9.721,3.826A2.874,2.874,0,0,1,7.764,6.673L8.92,7.83A2.245,2.245,0,0,1,7.764,9.343a3.245,3.245,0,0,1,1.4,2.625c0,2.18-1.537,3.76-4.138,3.76a5.726,5.726,0,0,1-1.49-.2,5.9,5.9,0,0,0-1.447-.178,3.943,3.943,0,0,0-1.756.379L.111,13.169a1.726,1.726,0,0,1,.978-.223,1.886,1.886,0,0,1-.178-.867A3.486,3.486,0,0,1,4.226,8.542c.422-.023.712-.134.712-.4a.336.336,0,0,0-.266-.311L3.047,7.274C1.089,6.606,0,5.517,0,3.648,0,1.556,1.913,0,4.827,0ZM4.048,4.849l1.335.379A1.473,1.473,0,0,0,6.9,3.781c0-.756-.69-1.424-2-1.424-1.269,0-1.959.6-1.959,1.245A1.366,1.366,0,0,0,4.048,4.849Zm.98,8.587a1.337,1.337,0,1,0,0-2.669A1.389,1.389,0,0,0,3.6,12.1,1.361,1.361,0,0,0,5.028,13.436Z" transform="translate(103.305 1844.473) rotate(180)" fill="#1baf00"/>
      <path id="Path_664" data-name="Path 664" d="M2.869.267l.088,1A3.564,3.564,0,0,1,5.984,0,3.473,3.473,0,0,1,9.72,3.626v6.719H6.45V4.338a1.392,1.392,0,0,0-1.534-1.4A1.5,1.5,0,0,0,3.27,4.383v5.962H0V.267Z" transform="translate(119.607 1839.423) rotate(180)" fill="#1baf00"/>
      <path id="Path_665" data-name="Path 665" d="M5.427,4.827a3.7,3.7,0,0,1,1.891.423V0h3.159V15.216H7.919l-.088-.734a3.458,3.458,0,0,1-2.759,1A5.114,5.114,0,0,1,0,10.3,5.232,5.232,0,0,1,5.427,4.827Zm.067,7.83a2.594,2.594,0,0,0,1.825-.69V8.253A2.759,2.759,0,0,0,5.494,7.63a2.37,2.37,0,0,0-2.357,2.514A2.37,2.37,0,0,0,5.494,12.657Z" transform="translate(132.194 1844.295) rotate(180)" fill="#1baf00"/>
      <path id="Path_666" data-name="Path 666" d="M1.847,0A2.807,2.807,0,0,1,3.694,1.825,2.853,2.853,0,0,1,1.847,3.649,2.85,2.85,0,0,1,0,1.825,2.8,2.8,0,0,1,1.847,0Z" transform="translate(137.152 1839.468) rotate(180)" fill="#1baf00"/>
      <path id="Path_667" data-name="Path 667" d="M8.9,0V14.193H.624V11.368H5.45V8.542H1.512V5.673H5.45V2.825H0V0Z" transform="translate(152.876 1839.156) rotate(180)" fill="#1baf00"/>
      <path id="Path_668" data-name="Path 668" d="M1.134,0A2.548,2.548,0,0,1,3.27,1.135,3.789,3.789,0,0,1,6.1,0,3.33,3.33,0,0,1,9.743,3.315c0,1.846-1.445,3.07-3.424,3.27l-2,.2v.356c0,.623.444,1.045,1.578,1.045A6.376,6.376,0,0,0,8.853,7.5L9.1,9.988a7.77,7.77,0,0,1-3.381.712c-2.8,0-4.56-1.446-4.56-4.048V3.76A1.331,1.331,0,0,0,0,2.269ZM4.226,4.717l1.357-.134A1.29,1.29,0,0,0,6.9,3.271a1.009,1.009,0,0,0-1.068-.979,1.589,1.589,0,0,0-1.6,1.49Z" transform="translate(163.707 1839.468) rotate(180)" fill="#1baf00"/>
      <path id="Path_669" data-name="Path 669" d="M.244,7.586H3.113V3.938A1.127,1.127,0,0,0,1.869,2.759a2.9,2.9,0,0,0-1.046.155L1.068.244A3.941,3.941,0,0,1,2.6,0,3.453,3.453,0,0,1,6.34,3.47V7.586H8.053v2.669H6.274v1.957L3.159,13.391V10.255H0Z" transform="translate(172.358 1839.334) rotate(180)" fill="#1baf00"/>
      <path id="Path_670" data-name="Path 670" d="M1.69,11.723a2.553,2.553,0,0,1,1.668,1.668A2.585,2.585,0,0,1,1.69,15.083,2.571,2.571,0,0,1,0,13.392,2.54,2.54,0,0,1,1.69,11.723ZM3.313,0V10.078H.021V0Z" transform="translate(177.337 1839.156) rotate(180)" fill="#1baf00"/>
      <path id="Path_671" data-name="Path 671" d="M3.27,0V6.007a1.392,1.392,0,0,0,1.535,1.4A1.5,1.5,0,0,0,6.452,5.962V0h3.27V10.078H6.851l-.088-1a3.565,3.565,0,0,1-3.026,1.268A3.475,3.475,0,0,1,0,6.719V0Z" transform="translate(189.304 1839.156) rotate(180)" fill="#1baf00"/>
      <path id="Path_672" data-name="Path 672" d="M4.826,0c2.937,0,4.9,1.69,4.9,3.826A2.876,2.876,0,0,1,7.764,6.673L8.92,7.83A2.24,2.24,0,0,1,7.764,9.343a3.248,3.248,0,0,1,1.4,2.625c0,2.18-1.534,3.76-4.138,3.76a5.758,5.758,0,0,1-1.49-.2,5.87,5.87,0,0,0-1.445-.178,3.957,3.957,0,0,0-1.758.379L.111,13.169a1.721,1.721,0,0,1,.978-.223,1.864,1.864,0,0,1-.178-.867A3.487,3.487,0,0,1,4.226,8.542c.422-.023.712-.134.712-.4A.336.336,0,0,0,4.67,7.83L3.047,7.274C1.089,6.606,0,5.517,0,3.648,0,1.556,1.913,0,4.826,0ZM4.048,4.849l1.334.379A1.474,1.474,0,0,0,6.9,3.781c0-.756-.688-1.424-2-1.424-1.267,0-1.956.6-1.956,1.245A1.365,1.365,0,0,0,4.048,4.849Zm.978,8.587a1.338,1.338,0,1,0,0-2.669A1.388,1.388,0,0,0,3.6,12.1,1.361,1.361,0,0,0,5.026,13.436Z" transform="translate(200.513 1844.473) rotate(180)" fill="#1baf00"/>
      <path id="Path_673" data-name="Path 673" d="M3.516,0H5.74L7.076,3.982a18.709,18.709,0,0,1,.6,2.047h.045A18.539,18.539,0,0,1,8.3,4L9.633,0h2.247L15.4,10.166h-2.98l-1.246-3.8a15.864,15.864,0,0,1-.49-1.89h-.044c-.156.623-.334,1.335-.512,1.89l-1.245,3.8H6.407L5.14,6.384c-.2-.623-.356-1.29-.489-1.913H4.606A16.069,16.069,0,0,1,4.1,6.384L2.848,10.166H0Z" transform="translate(221.932 1839.245) rotate(180)" fill="#1baf00"/>
      <path id="Path_674" data-name="Path 674" d="M.111,5.695,1.424,4.4H6.452A2.853,2.853,0,0,0,3.493,2.491a5.436,5.436,0,0,0-2.914.779L.868.579a6.892,6.892,0,0,1,3-.579C7.164,0,9.766,2.114,9.766,5.406A5.105,5.105,0,0,1,4.517,10.7C1.713,10.7,0,8.765,0,6.7A4.767,4.767,0,0,1,.111,5.695ZM4.517,8.231A2.128,2.128,0,0,0,6.563,6.5H3a.707.707,0,0,0-.021.222A1.491,1.491,0,0,0,4.517,8.231Z" transform="translate(232.783 1839.468) rotate(180)" fill="#1baf00"/>
      <path id="Path_675" data-name="Path 675" d="M1.447,0A3.444,3.444,0,0,1,4.471,3.648V16.284H1.245V3.893A1.557,1.557,0,0,0,0,2.269Z" transform="translate(239.229 1839.601) rotate(180)" fill="#1baf00"/>
      <path id="Path_676" data-name="Path 676" d="M1.446,0A3.446,3.446,0,0,1,4.473,3.648V16.284H1.246V3.893A1.558,1.558,0,0,0,0,2.269Z" transform="translate(245.568 1839.601) rotate(180)" fill="#1baf00"/>
      <path id="Path_677" data-name="Path 677" d="M1.846,0A2.8,2.8,0,0,1,3.693,1.825,2.851,2.851,0,0,1,1.846,3.649,2.85,2.85,0,0,1,0,1.825,2.8,2.8,0,0,1,1.846,0Z" transform="translate(250.393 1839.468) rotate(180)" fill="#1baf00"/>
    </g>
  </g>
</svg>
