<svg xmlns="http://www.w3.org/2000/svg" width="719.089" height="173.27" viewBox="0 0 719.089 173.27">
  <g id="Group_1730" data-name="Group 1730" transform="translate(-224 -4840)">
    <g id="Group_1535" data-name="Group 1535" transform="translate(37.995 4461.781)">
      <g id="Group_1535-2" data-name="Group 1535" transform="translate(186.005 378.219)">
        <path id="Path_645" data-name="Path 645" d="M278.432,391.7v29.94a10.947,10.947,0,0,1-10.946,10.948h0a10.947,10.947,0,0,1-10.948-10.948V391.7H234.87v30.35a27.6,27.6,0,0,0,27.6,27.6h0a27.6,27.6,0,0,0,27.6-27.6V391.7Z" transform="translate(-163.419 -371.988)" fill="#168146"/>
        <path id="Path_646" data-name="Path 646" d="M392.511,391.7v29.94a10.947,10.947,0,0,1-10.946,10.948h0a10.947,10.947,0,0,1-10.948-10.948V391.7H348.949v30.35a27.6,27.6,0,0,0,27.6,27.6h0a27.6,27.6,0,0,0,27.6-27.6V391.7Z" transform="translate(-110.691 -371.988)" fill="#168146"/>
        <path id="Path_647" data-name="Path 647" d="M314.712,390.836c-6.6.013-12.163,4.252-14.7,11V392.2H278.34v55.527h21.668V412.9c7.636-7.26,20.127-2.983,21.512,5.034C335.988,409.065,328.831,390.81,314.712,390.836Z" transform="translate(-143.327 -372.387)" fill="#168146"/>
        <path id="Path_648" data-name="Path 648" d="M428.65,390.836c-6.6.013-12.161,4.252-14.7,11V392.2H392.278v55.527h21.668V412.9c7.637-7.26,20.129-2.983,21.513,5.034C449.927,409.065,442.771,390.81,428.65,390.836Z" transform="translate(-90.664 -372.387)" fill="#168146"/>
        <path id="Path_649" data-name="Path 649" d="M486.211,422.136c.038-.611.063-1.227.063-1.848a29.52,29.52,0,1,0-29.521,29.521c8.512,0,16.6-3.232,21.563-9.365,8.422-10.417-1.181-16.388-6.649-11.535,1.395,3.179-2.331,9.351-10.161,9.351a13.16,13.16,0,0,1-13.16-13.161v-2.961ZM460.9,402.65a12.332,12.332,0,0,1,11.54,8H449.363A12.335,12.335,0,0,1,460.9,402.65Z" transform="translate(-74.507 -372.419)" fill="#168146"/>
        <path id="Path_650" data-name="Path 650" d="M356.392,409.563V397.93h-9.765V378.219H324.959V397.93h-9.765v11.633h9.765l.009,30.879c0,6.631,3.939,14.6,13.917,15.144,7.991.431,13.271-5.376,13.917-8.808-3.638.778-6.166-2.288-6.166-6.087l-.009-31.127Z" transform="translate(-126.293 -378.219)" fill="#168146"/>
        <path id="Path_651" data-name="Path 651" d="M249.507,435.124l.02-17.413a27.6,27.6,0,0,0-27.6-27.6h0a27.528,27.528,0,0,0-20.4,9.013,10.518,10.518,0,0,0-7.694-2.607c-4.15.263-7.829,3.419-7.829,6.76,8.326,1.281,8.326,11.864,8.326,19.92V448.06H216V418.118a10.947,10.947,0,0,1,21.894,0v21.987c0,4.274,3.789,10.164,10.116,9.762,3.484-.221,6.576-2.87,6.576-5.678C249.146,444.189,249.408,440.782,249.507,435.124Z" transform="translate(-186.005 -372.722)" fill="#168146"/>
      </g>
      <g id="Group_1536" data-name="Group 1536" transform="translate(194.331 465.643)">
        <path id="Path_652" data-name="Path 652" d="M324.636,487.709c.038-.613.063-1.228.063-1.848a29.521,29.521,0,1,0-29.521,29.519c8.512,0,16.6-3.232,21.563-9.365,8.421-10.417-1.181-16.388-6.649-11.535,1.395,3.179-2.331,9.351-10.161,9.351a13.162,13.162,0,0,1-13.161-13.161v-2.96Zm-25.308-19.487a12.335,12.335,0,0,1,11.54,8H287.787A12.336,12.336,0,0,1,299.328,468.222Z" transform="translate(-157.515 -429.535)" fill="#168146"/>
        <path id="Path_653" data-name="Path 653" d="M213.367,440.917H191.7l.009,66.425c0,6.631,3.939,14.6,13.917,15.144,7.991.431,13.271-5.377,13.919-8.808-3.639.778-6.168-2.288-6.168-6.087Z" transform="translate(-191.699 -436.664)" fill="#168146"/>
        <path id="Path_654" data-name="Path 654" d="M237.015,457.271H215.347l.009,42.512c0,6.631,3.938,14.6,13.917,15.144,7.991.431,13.271-5.377,13.917-8.808-3.639.778-6.166-2.288-6.166-6.087Z" transform="translate(-180.769 -429.104)" fill="#168146"/>
        <path id="Path_655" data-name="Path 655" d="M267.361,466.174v-3.951c0-7.647,9.333-6.722,9.275-1.733,6.478-7.842,1.262-22.483-12.426-22.483-6.6,0-18.517,4.507-18.517,19.771v8.4h-9.765v11.633h9.765v43.724h21.668V477.808h9.763V466.174Z" transform="translate(-171.256 -438.008)" fill="#168146"/>
        <ellipse id="Ellipse_18" data-name="Ellipse 18" cx="10.564" cy="10.37" rx="10.564" ry="10.37" transform="translate(35.236 2.814)" fill="#168146"/>
      </g>
    </g>
    <g id="Group_1545" data-name="Group 1545" transform="translate(2171.91 5279.658) rotate(180)" opacity="0.7">
      <path id="Path_657" data-name="Path 657" d="M1716.313,288.52c8.749,0,17.6,5.766,17.6,16.6,0,10.936-9.046,16.6-17.4,16.6a18.6,18.6,0,0,1-10.086-2.536l.594-6.76a14.813,14.813,0,0,0,8.7,2.635c5.768,0,10.54-3.877,10.54-10.141,0-5.965-4.523-9.841-10.287-9.841a8.314,8.314,0,0,0-4.326.944V300.5h5.768v5.916h-12.83V291.8C1707.267,289.663,1711.2,288.52,1716.313,288.52Z" fill="#0f8244"/>
      <path id="Path_658" data-name="Path 658" d="M1684.857,305.869c3.876,0,7.459-2.288,7.459-7.706v-8.9h7.254v22.519h-6.712l-.2-3.529c-1.393,2.832-4.173,3.926-7.853,3.926l-.55-6.312Z" fill="#0f8244"/>
      <path id="Path_659" data-name="Path 659" d="M1669.652,288.569c6.809,0,12.28,4.922,12.28,11.93,0,7.059-5.471,11.98-12.28,11.98-6.76,0-12.227-4.921-12.227-11.98C1657.425,293.491,1662.892,288.569,1669.652,288.569Zm0,17.746c2.832,0,5.218-2.434,5.218-5.816a5.24,5.24,0,1,0-10.436,0C1664.434,303.881,1666.869,306.315,1669.652,306.315Z" fill="#0f8244"/>
      <path id="Path_660" data-name="Path 660" d="M1628.4,289.067h4.969l2.984,8.9a43.025,43.025,0,0,1,1.342,4.573h.1a44.489,44.489,0,0,1,1.294-4.523l2.984-8.947h5.021l7.853,22.717h-6.66l-2.784-8.5a34.38,34.38,0,0,1-1.092-4.224h-.1c-.349,1.392-.747,2.983-1.144,4.224l-2.784,8.5h-5.515l-2.836-8.452c-.446-1.391-.8-2.882-1.093-4.274h-.1a35.006,35.006,0,0,1-1.145,4.274l-2.78,8.452h-6.362Z" fill="#0f8244"/>
      <path id="Path_661" data-name="Path 661" d="M1613.054,315.461c1.193,0,3.727,2.487,3.727,3.728s-2.534,3.78-3.727,3.78c-1.246,0-3.78-2.537-3.78-3.78S1611.808,315.461,1613.054,315.461Zm3.627-26.2v22.519h-7.355V289.265Z" fill="#0f8244"/>
      <path id="Path_662" data-name="Path 662" d="M1589.844,289.265v13.423a3.114,3.114,0,0,0,3.43,3.131c2.234,0,3.676-1.442,3.676-3.232V289.265h7.307v22.519h-6.411l-.2-2.238c-1.294,1.74-3.531,2.834-6.761,2.834-4.924,0-8.351-3.133-8.351-8.1V289.265Z" fill="#0f8244"/>
      <path id="Path_663" data-name="Path 663" d="M1568.277,277.386c6.563,0,10.938,3.777,10.938,8.549a6.422,6.422,0,0,1-4.375,6.363l2.583,2.585a5.016,5.016,0,0,1-2.583,3.38,7.251,7.251,0,0,1,3.133,5.865c0,4.872-3.434,8.4-9.246,8.4a12.793,12.793,0,0,1-3.33-.448,13.178,13.178,0,0,0-3.234-.4,8.811,8.811,0,0,0-3.924.846l-.5-5.716a3.857,3.857,0,0,1,2.185-.5,4.214,4.214,0,0,1-.4-1.938,7.79,7.79,0,0,1,7.407-7.9c.944-.051,1.591-.3,1.591-.9a.75.75,0,0,0-.595-.7l-3.631-1.243c-4.374-1.492-6.808-3.927-6.808-8.1C1557.492,280.864,1561.766,277.386,1568.277,277.386Zm-1.739,10.835,2.984.846a3.292,3.292,0,0,0,3.378-3.232c0-1.689-1.542-3.181-4.471-3.181-2.835,0-4.378,1.343-4.378,2.783A3.053,3.053,0,0,0,1566.538,288.221Zm2.189,19.188a2.989,2.989,0,1,0-3.182-2.982A3.041,3.041,0,0,0,1568.727,307.409Z" fill="#0f8244"/>
      <path id="Path_664" data-name="Path 664" d="M1527.477,289.265l.2,2.238c1.293-1.741,3.531-2.834,6.764-2.834,4.921,0,8.347,3.131,8.347,8.1v15.013h-7.306V298.362a3.111,3.111,0,0,0-3.427-3.132c-2.237,0-3.679,1.442-3.679,3.232v13.322h-7.307V289.265Z" fill="#0f8244"/>
      <path id="Path_665" data-name="Path 665" d="M1505.066,288.569a8.276,8.276,0,0,1,4.226.945V277.783h7.058v34h-5.716l-.2-1.641c-1.145,1.49-3.479,2.237-6.166,2.237a11.427,11.427,0,0,1-11.332-11.582C1492.939,293.441,1498.157,288.569,1505.066,288.569Zm.149,17.5a5.8,5.8,0,0,0,4.077-1.541v-8.3a6.166,6.166,0,0,0-4.077-1.392,5.628,5.628,0,0,0,0,11.233Z" fill="#0f8244"/>
      <path id="Path_666" data-name="Path 666" d="M1485.986,288.569c1.341,0,4.129,2.735,4.129,4.077,0,1.293-2.788,4.077-4.129,4.077s-4.126-2.784-4.126-4.077C1481.86,291.3,1484.644,288.569,1485.986,288.569Z" fill="#0f8244"/>
      <path id="Path_667" data-name="Path 667" d="M1466.608,289.265V320.98h-18.49v-6.314H1458.9v-6.313h-8.8v-6.412h8.8v-6.363h-12.179v-6.313Z" fill="#0f8244"/>
      <path id="Path_668" data-name="Path 668" d="M1425.057,288.569a5.7,5.7,0,0,1,4.772,2.536,8.466,8.466,0,0,1,6.315-2.536c4.571,0,8.15,2.783,8.15,7.407,0,4.125-3.23,6.86-7.652,7.306l-4.475.448v.795c0,1.392.992,2.336,3.527,2.336a14.25,14.25,0,0,0,6.612-1.54l.546,5.567a17.363,17.363,0,0,1-7.556,1.591c-6.262,0-10.19-3.232-10.19-9.046V296.97c0-1.989-.993-3.081-2.583-3.33Zm6.909,10.54,3.033-.3a2.881,2.881,0,0,0,2.932-2.932,2.255,2.255,0,0,0-2.386-2.187,3.552,3.552,0,0,0-3.579,3.33Z" fill="#0f8244"/>
      <path id="Path_669" data-name="Path 669" d="M1403.739,305.819h6.411v-8.152a2.518,2.518,0,0,0-2.78-2.635,6.47,6.47,0,0,0-2.337.347l.546-5.965a8.806,8.806,0,0,1,3.43-.546c4.969,0,8.351,3.231,8.351,7.754v9.2h3.828v5.965h-3.976v4.374l-6.961,2.633v-7.007h-7.058Z" fill="#0f8244"/>
      <path id="Path_670" data-name="Path 670" d="M1395.842,315.461c1.193,0,3.727,2.487,3.727,3.728s-2.534,3.78-3.727,3.78c-1.242,0-3.776-2.537-3.776-3.78S1394.6,315.461,1395.842,315.461Zm3.627-26.2v22.519h-7.355V289.265Z" fill="#0f8244"/>
      <path id="Path_671" data-name="Path 671" d="M1372.632,289.265v13.423a3.112,3.112,0,0,0,3.43,3.131c2.238,0,3.68-1.442,3.68-3.232V289.265h7.306v22.519h-6.414l-.2-2.238c-1.294,1.74-3.531,2.834-6.761,2.834-4.92,0-8.351-3.133-8.351-8.1V289.265Z" fill="#0f8244"/>
      <path id="Path_672" data-name="Path 672" d="M1351.065,277.386c6.563,0,10.938,3.777,10.938,8.549a6.427,6.427,0,0,1-4.375,6.363l2.583,2.585a5,5,0,0,1-2.583,3.38,7.257,7.257,0,0,1,3.13,5.865c0,4.872-3.427,8.4-9.247,8.4a12.866,12.866,0,0,1-3.33-.448,13.121,13.121,0,0,0-3.23-.4,8.843,8.843,0,0,0-3.928.846l-.494-5.716a3.848,3.848,0,0,1,2.185-.5,4.163,4.163,0,0,1-.4-1.938,7.792,7.792,0,0,1,7.407-7.9c.944-.051,1.591-.3,1.591-.9a.75.75,0,0,0-.6-.7l-3.628-1.243c-4.374-1.492-6.808-3.927-6.808-8.1C1340.28,280.864,1344.554,277.386,1351.065,277.386Zm-1.739,10.835,2.98.846a3.293,3.293,0,0,0,3.382-3.232c0-1.689-1.538-3.181-4.474-3.181-2.832,0-4.371,1.343-4.371,2.783A3.049,3.049,0,0,0,1349.326,288.221Zm2.185,19.188a2.989,2.989,0,1,0,0-5.965,3.1,3.1,0,0,0-3.181,2.983A3.042,3.042,0,0,0,1351.511,307.409Z" fill="#0f8244"/>
      <path id="Path_673" data-name="Path 673" d="M1300.275,289.067h4.969l2.985,8.9a41.891,41.891,0,0,1,1.341,4.573h.1a41.37,41.37,0,0,1,1.293-4.523l2.98-8.947h5.022l7.853,22.717h-6.66l-2.784-8.5a35.488,35.488,0,0,1-1.1-4.224h-.1c-.349,1.392-.747,2.983-1.145,4.224l-2.783,8.5h-5.52l-2.831-8.452c-.446-1.391-.8-2.882-1.093-4.274h-.1a35.914,35.914,0,0,1-1.141,4.274l-2.788,8.452h-6.363Z" fill="#0f8244"/>
      <path id="Path_674" data-name="Path 674" d="M1268.421,301.294l2.932-2.882h11.235c-.546-1.989-2.635-4.276-6.611-4.276a12.147,12.147,0,0,0-6.512,1.741l.647-6.015a15.4,15.4,0,0,1,6.712-1.293c7.355,0,13.171,4.723,13.171,12.08a11.407,11.407,0,0,1-11.729,11.83c-6.266,0-10.094-4.324-10.094-8.948A10.645,10.645,0,0,1,1268.421,301.294Zm9.845,5.668a4.754,4.754,0,0,0,4.571-3.877h-7.953a1.581,1.581,0,0,0-.048.5A3.332,3.332,0,0,0,1278.266,306.962Z" fill="#0f8244"/>
      <path id="Path_675" data-name="Path 675" d="M1257,288.271c3.029.2,6.757,2.933,6.757,8.152v28.235h-7.207V296.97a3.48,3.48,0,0,0-2.783-3.629Z" fill="#0f8244"/>
      <path id="Path_676" data-name="Path 676" d="M1242.833,288.271c3.032.2,6.764,2.933,6.764,8.152v28.235h-7.21V296.97a3.481,3.481,0,0,0-2.784-3.629Z" fill="#0f8244"/>
      <path id="Path_677" data-name="Path 677" d="M1232.947,288.569c1.341,0,4.125,2.735,4.125,4.077,0,1.293-2.784,4.077-4.125,4.077s-4.126-2.784-4.126-4.077C1228.821,291.3,1231.6,288.569,1232.947,288.569Z" fill="#0f8244"/>
    </g>
  </g>
</svg>
