<svg xmlns="http://www.w3.org/2000/svg" width="249.837" height="36.565" viewBox="0 0 249.837 36.565">
  <g id="Group_1640" data-name="Group 1640" transform="translate(-430.819 -520.595)">
    <g id="Group_1638" data-name="Group 1638" transform="translate(430.819 524.083)">
      <path id="Path_694" data-name="Path 694" d="M524.15,549.791v12.753a4.663,4.663,0,1,1-9.325,0V549.791H505.6v12.927a11.755,11.755,0,0,0,23.51,0V549.791Z" transform="translate(-475.161 -541.396)" fill="#41a736"/>
      <path id="Path_695" data-name="Path 695" d="M698.717,549.791v12.753a4.663,4.663,0,1,1-9.325,0V549.791h-9.23v12.927a11.755,11.755,0,1,0,23.51,0V549.791Z" transform="translate(-578.679 -541.396)" fill="#41a736"/>
      <path id="Path_696" data-name="Path 696" d="M587.606,548.471a6.739,6.739,0,0,0-6.263,4.683v-4.1h-9.23V572.7h9.23V557.87c3.253-3.092,8.574-1.27,9.163,2.144,6.162-3.778,3.114-11.554-2.9-11.543" transform="translate(-514.606 -540.613)" fill="#41a736"/>
      <path id="Path_697" data-name="Path 697" d="M761.959,548.471a6.739,6.739,0,0,0-6.263,4.683v-4.1h-9.23V572.7h9.23V557.87c3.252-3.092,8.573-1.27,9.163,2.144,6.162-3.778,3.114-11.554-2.9-11.543" transform="translate(-617.997 -540.613)" fill="#41a736"/>
      <path id="Path_698" data-name="Path 698" d="M825.077,561.727c.016-.26.027-.523.027-.787a12.574,12.574,0,1,0-12.574,12.574,11.7,11.7,0,0,0,9.184-3.99c3.587-4.437-.5-6.98-2.832-4.913.594,1.354-.993,3.983-4.328,3.983a5.606,5.606,0,0,1-5.606-5.606v-1.261Zm-10.779-8.3a5.255,5.255,0,0,1,4.915,3.407h-9.831a5.254,5.254,0,0,1,4.916-3.407" transform="translate(-649.716 -540.551)" fill="#41a736"/>
      <path id="Path_699" data-name="Path 699" d="M646.057,542.515V537.56H641.9v-8.4h-9.23v8.4H628.51v4.955h4.159l0,13.152c0,2.825,1.678,6.221,5.928,6.451,3.4.184,5.652-2.29,5.928-3.752-1.55.332-2.627-.974-2.627-2.593l0-13.258Z" transform="translate(-548.049 -529.164)" fill="#41a736"/>
      <path id="Path_700" data-name="Path 700" d="M457.868,566.534l.008-7.417a11.755,11.755,0,0,0-20.445-7.916,4.482,4.482,0,0,0-3.278-1.111c-1.767.112-3.334,1.456-3.334,2.879,3.547.546,3.547,5.054,3.547,8.485v10.59h9.23V559.291a4.663,4.663,0,0,1,9.325,0v9.365a4.224,4.224,0,0,0,4.308,4.158,2.856,2.856,0,0,0,2.8-2.418c-2.316,0-2.2-1.451-2.162-3.862" transform="translate(-430.819 -539.955)" fill="#41a736"/>
    </g>
    <g id="Group_1639" data-name="Group 1639" transform="translate(609.446 520.595)" opacity="0.75">
      <path id="Path_701" data-name="Path 701" d="M1008,562.008c.016-.26.027-.523.027-.787a12.574,12.574,0,1,0-12.574,12.574,11.7,11.7,0,0,0,9.184-3.99c3.588-4.436-.5-6.98-2.831-4.913.594,1.354-.993,3.983-4.328,3.983a5.606,5.606,0,0,1-5.606-5.606v-1.261Zm-10.779-8.3a5.253,5.253,0,0,1,4.915,3.407H992.3a5.254,5.254,0,0,1,4.915-3.407" transform="translate(-936.814 -537.23)" fill="#65b031"/>
      <path id="Path_702" data-name="Path 702" d="M878.931,525.048H869.7l0,28.292c0,2.825,1.678,6.221,5.928,6.451,3.4.184,5.653-2.29,5.928-3.752-1.55.332-2.627-.974-2.627-2.593Z" transform="translate(-869.702 -523.236)" fill="#65b031"/>
      <path id="Path_703" data-name="Path 703" d="M915.117,550.072h-9.229l0,18.108c0,2.825,1.678,6.221,5.928,6.451,3.4.184,5.653-2.29,5.928-3.752-1.55.331-2.627-.975-2.627-2.593Z" transform="translate(-891.16 -538.075)" fill="#65b031"/>
      <path id="Path_704" data-name="Path 704" d="M950.77,532.592V530.91c0-3.257,3.976-2.863,3.951-.738,2.76-3.34.537-9.577-5.292-9.577-2.812,0-7.888,1.919-7.888,8.422v3.576h-4.159v4.955h4.159v18.624h9.229V537.547h4.159v-4.955Z" transform="translate(-909.836 -520.595)" fill="#65b031"/>
      <path id="Path_705" data-name="Path 705" d="M915.576,527.958a4.5,4.5,0,1,1-4.5-4.417,4.459,4.459,0,0,1,4.5,4.417" transform="translate(-891.568 -522.342)" fill="#65b031"/>
    </g>
  </g>
</svg>
