<?xml version="1.0" encoding="utf-8"?>
<!-- Generator: Adobe Illustrator 24.0.0, SVG Export Plug-In . SVG Version: 6.00 Build 0)  -->
<svg version="1.1" id="Artwork" xmlns="http://www.w3.org/2000/svg" xmlns:xlink="http://www.w3.org/1999/xlink" x="0px" y="0px"
	 viewBox="0 0 171.2 130.1" style="enable-background:new 0 0 171.2 130.1;" xml:space="preserve">
<style type="text/css">
	.st0{fill:#FFFFFF;stroke:#565658;stroke-width:3;stroke-linecap:round;stroke-linejoin:round;}
	.st1{fill:none;stroke:#565658;stroke-width:3;stroke-linecap:round;stroke-linejoin:round;}
	.st2{fill:#58595B;}
	.st3{fill:#8CC541;stroke:#565658;stroke-width:3;stroke-linecap:round;stroke-linejoin:round;}
</style>
<g>
	<path class="st0" d="M26.9,83.8c-12.5,0-18.6-4.9-21.6-9.5C2,69.2,2.2,62.6,5.9,57.7c3.1-4,8.9-7.2,19.6-4.4"/>
	<path class="st0" d="M144.3,82c12.5,0,18.6-4.9,21.6-9.5c3.3-5.1,3.1-11.7-0.6-16.6c-3.1-4-8.9-7.2-19.6-4.4"/>
	<path class="st0" d="M145.7,65.1c0,33.5-27.2,60.6-60.7,60.6S24.4,98.5,24.4,65c0-3.9,0.4-7.8,1.1-11.6c16.9-2,60.2-10.2,87.6-42
		c0,0,3.1,40.2,31.1,40.2C145.2,55.9,145.7,60.5,145.7,65.1z"/>
	<path class="st1" d="M56.2,82.2c0,0,0.4,23,28.8,23s28.8-22,28.8-22"/>
	<path class="st2" d="M108.6,112.7c3.5-2.2,4.6-6.9,2.3-10.4l0,0c-2.2-3.5-14.9,4.6-12.7,8.1C100.5,113.9,105.1,114.9,108.6,112.7z"
		/>
	<polygon class="st2" points="110.9,102.2 107.6,97.2 102.2,101.4 94.4,104.3 98.2,110.4 	"/>
	<path class="st3" d="M113.1,11.3c-27.4,31.8-70.7,40-87.6,42C32,20.4,63.9-0.9,96.8,5.6C102.5,6.7,108,8.6,113.1,11.3z"/>
	<path class="st3" d="M144.1,51.5c-27.9,0-31.1-40.2-31.1-40.2C128.8,19.5,140.1,34.2,144.1,51.5z"/>
	<circle class="st2" cx="66.2" cy="66.6" r="5.5"/>
	<circle class="st2" cx="102.1" cy="66.6" r="5.5"/>
</g>
</svg>
