<svg xmlns="http://www.w3.org/2000/svg" width="153.485" height="178.891" viewBox="0 0 153.485 178.891">
  <g id="Group_1690" data-name="Group 1690" transform="translate(-636.431 -312.338)">
    <rect id="Rectangle_442" data-name="Rectangle 442" width="153.485" height="178.891" transform="translate(636.431 312.338)" fill="#f36a10"/>
    <g id="Group_1689" data-name="Group 1689" transform="translate(660.319 359)">
      <path id="Path_707" data-name="Path 707" d="M667.667,367.635c1.491-.075,2.173-.579,2.173-1.895V355.254c0-1.313-.682-1.819-2.173-1.894v-1.466h8.086v1.466c-2,.05-2.526.456-2.526,2.072v4.5l5.1-4.523c.606-.556.859-.96.859-1.24,0-.429-.379-.707-1.869-.807v-1.466h8.136v1.466c-1.744.1-3.513,1.087-5.735,3.057l-1.819,1.616,3.789,5.231c2.377,3.285,3.057,4.142,5.1,4.37V369.1h-9.171v-1.466c1.692-.075,2.273-.3,2.273-.883a1.485,1.485,0,0,0-.3-.734l-4.092-5.863-2.273,2v3.235c0,1.844.832,2.248,2.474,2.248V369.1h-8.034Z" transform="translate(-640.281 -351.413)" fill="#fff"/>
      <path id="Path_708" data-name="Path 708" d="M679.628,357.767a12.594,12.594,0,0,0,3.739-.834h1.263v9.248c0,1.01.278,1.641,1.92,1.667v1.466h-6.921v-1.466c1.642-.025,1.92-.657,1.92-1.667v-5.61c0-.96-.2-1.238-1.92-1.338Zm3.739-6.141a1.921,1.921,0,1,1-1.92,1.921A1.919,1.919,0,0,1,683.367,351.626Z" transform="translate(-630.784 -351.626)" fill="#fff"/>
      <path id="Path_709" data-name="Path 709" d="M693.974,368.267a6.142,6.142,0,0,1-3.613,1.188c-3.891,0-5.633-3.107-5.633-6.469,0-3.183,1.665-6.417,5.633-6.417a5.774,5.774,0,0,1,3.462,1.112v-2.072c0-1.137-.353-1.491-2.25-1.541V352.6a10.922,10.922,0,0,0,4.067-.834h1.265v14.3c0,1.01.278,1.641,1.92,1.667V369.2h-4.851Zm-.151-8.742a3.327,3.327,0,0,0-2.477-1.188c-2.678,0-3.385,2.3-3.385,4.751,0,1.794.631,4.6,2.98,4.6a4.192,4.192,0,0,0,2.883-1.085Z" transform="translate(-626.735 -351.514)" fill="#fff"/>
      <path id="Path_710" data-name="Path 710" d="M694.057,362.957l1.364-.276a4.849,4.849,0,0,0,4.725,3.03c1.441,0,2.653-.657,2.653-1.767,0-.859-.431-1.338-2.3-1.694l-2.07-.4c-2.173-.431-3.891-1.188-3.839-3.412.05-2.526,2.147-3.992,5.027-3.992a6.9,6.9,0,0,1,3.588.987l.328-.734h.884l.579,3.462-1.338.226a4.244,4.244,0,0,0-3.891-2.476c-1.238,0-2.248.657-2.248,1.541,0,.633.379,1.062,1.466,1.29l3.26.682c2.047.429,3.486,1.213,3.486,3.486,0,2.528-2.072,4.422-5.61,4.422a6.606,6.606,0,0,1-3.915-1.087l-.3.834h-1.062Z" transform="translate(-619.327 -349.389)" fill="#fff"/>
      <path id="Path_711" data-name="Path 711" d="M686.329,412.953v10.17H672.891v-10.17H654.035l-1.633-11.8,18.559-25.389h15.368v26.205h4.53v10.988ZM673.04,390.236a24.224,24.224,0,0,1-2.3,4.083l-5.493,7.646h7.646v-7.8a23.77,23.77,0,0,1,.3-3.861Z" transform="translate(-652.402 -332.463)" fill="#fff"/>
      <path id="Path_712" data-name="Path 712" d="M679.091,398.6V387.76h20.416V398.6Z" transform="translate(-631.211 -322.935)" fill="#fff"/>
      <path id="Path_713" data-name="Path 713" d="M712.839,425.72l-15.366-3.861c4.751-2.226,12.174-8.909,14.476-13.362H711.5c-5.94,0-16.483-4.975-16.483-16.259,0-10.393,7.8-17.224,17.893-17.224,10.17,0,18.041,7.2,18.041,18.634C730.955,406.492,723.307,418.519,712.839,425.72Zm-.3-37.416a3.4,3.4,0,0,0-3.118,3.563,3.74,3.74,0,0,0,3.934,3.934,6.741,6.741,0,0,0,2.671-.594,10.094,10.094,0,0,0,.3-2.671C716.329,389.714,714.547,388.3,712.543,388.3Z" transform="translate(-618.562 -333.056)" fill="#fff"/>
      <path id="Path_714" data-name="Path 714" d="M662,421.673c1.668-.226,1.894-.312,1.894-1.616V417.38l-2.555-4.207a2.669,2.669,0,0,0-1.878-1.32v-1.008H664.7v1.008c-.9,0-1.218.192-1.218.452a2.051,2.051,0,0,0,.384.868l1.825,3.007,1.981-3.145a1.239,1.239,0,0,0,.244-.626c0-.33-.226-.418-1.13-.556v-1.008H671.2v1.008c-1.1.12-1.6.538-2.556,1.982l-2.417,3.615v2.9c0,.938.28,1.252,1.65,1.32v1.008H662Z" transform="translate(-646.794 -304.606)" fill="#fff"/>
      <path id="Path_715" data-name="Path 715" d="M668.417,416.421a3.719,3.719,0,0,0-.052.7c0,1.685.644,3.233,2.486,3.233a2.957,2.957,0,0,0,2.8-1.686l.852.4a4.007,4.007,0,0,1-4.1,2.4,4.26,4.26,0,0,1-4.363-4.537,4.161,4.161,0,0,1,4.345-4.327c2.156,0,3.929,1.146,3.929,3.823Zm3.565-1.008v-.26a1.461,1.461,0,0,0-1.6-1.546,1.824,1.824,0,0,0-1.859,1.807Z" transform="translate(-641.576 -303.213)" fill="#fff"/>
      <path id="Path_716" data-name="Path 716" d="M681.133,420.524a2.428,2.428,0,0,1-2.068.938,1.7,1.7,0,0,1-1.756-1.094,4.6,4.6,0,0,1-2.9,1.094,2.27,2.27,0,0,1-2.519-2.155c0-1.878,1.841-2.835,5.283-3.165v-1.13c0-.972-.332-1.406-1.53-1.406-.782,0-1.39.382-1.442.92-.1.99-.348,1.252-.972,1.252a.91.91,0,0,1-.94-.956c0-1.3,1.426-2.225,3.6-2.225,2.417,0,3.407.8,3.407,2.607v4.363c0,.486.226.678.556.678a.933.933,0,0,0,.714-.33Zm-3.963-3.477c-1.808.174-3.165.746-3.165,1.946,0,.678.4,1.148,1.3,1.148a3.046,3.046,0,0,0,1.86-.7Z" transform="translate(-636.931 -303.213)" fill="#fff"/>
      <path id="Path_717" data-name="Path 717" d="M679.353,415.275c0-.66-.14-.852-1.322-.922v-1.008a5.547,5.547,0,0,0,2.574-.746h.764v1.164A3.554,3.554,0,0,1,683.8,412.6c.748,0,1.426.26,1.426,1.216a.916.916,0,0,1-.9,1.008c-.852,0-.868-.7-1.67-.7a1.3,1.3,0,0,0-1.18.7v4.311c0,.694.192,1.128,1.32,1.146v1.008h-4.763V420.28c1.13-.018,1.322-.452,1.322-1.146Z" transform="translate(-632.052 -303.213)" fill="#fff"/>
      <path id="Path_718" data-name="Path 718" d="M682.935,418.455l.938-.192a3.335,3.335,0,0,0,3.249,2.086c.992,0,1.826-.452,1.826-1.216,0-.592-.294-.922-1.582-1.164l-1.424-.28c-1.494-.294-2.677-.816-2.641-2.347.034-1.737,1.476-2.745,3.457-2.745a4.751,4.751,0,0,1,2.469.676l.226-.5h.608l.4,2.381-.922.156a2.921,2.921,0,0,0-2.677-1.7c-.852,0-1.547.45-1.547,1.06,0,.434.258.73,1.006.886l2.242.468c1.408.3,2.4.836,2.4,2.4,0,1.737-1.424,3.041-3.857,3.041a4.545,4.545,0,0,1-2.695-.748l-.208.574h-.732Z" transform="translate(-628.158 -303.213)" fill="#fff"/>
      <path id="Path_719" data-name="Path 719" d="M698.049,410.718A6.145,6.145,0,1,1,692,416.871,5.864,5.864,0,0,1,698.049,410.718Zm3.511,6.154c0-3.095-1.374-4.937-3.511-4.937s-3.513,1.842-3.513,4.937c0,2.833,1.374,4.919,3.513,4.919S701.56,419.7,701.56,416.871Z" transform="translate(-620.961 -304.706)" fill="#fff"/>
      <path id="Path_720" data-name="Path 720" d="M699.79,421.742c1.13-.018,1.32-.452,1.32-1.146V413.26c0-.66-.14-.852-1.32-.92v-1.008a8.79,8.79,0,0,0,2.573-.574h.868V420.6c0,.694.19,1.128,1.32,1.146v1.008H699.79Z" transform="translate(-614.775 -304.675)" fill="#fff"/>
      <path id="Path_721" data-name="Path 721" d="M709.759,422.108a4.218,4.218,0,0,1-2.485.816c-2.678,0-3.877-2.137-3.877-4.451,0-2.189,1.148-4.413,3.877-4.413a3.976,3.976,0,0,1,2.382.764V413.4c0-.782-.244-1.024-1.55-1.058v-1.008a7.614,7.614,0,0,0,2.8-.574h.868V420.6c0,.694.192,1.128,1.322,1.146v1.008h-3.339Zm-.1-6.015a2.29,2.29,0,0,0-1.7-.816c-1.844,0-2.328,1.582-2.328,3.269,0,1.232.434,3.163,2.049,3.163a2.881,2.881,0,0,0,1.984-.748Z" transform="translate(-611.911 -304.675)" fill="#fff"/>
    </g>
    <line id="Line_55" data-name="Line 55" x2="122.87" transform="translate(657.738 388.719)" fill="none" stroke="#fff" stroke-miterlimit="10" stroke-width="1"/>
  </g>
</svg>
